<svg width="336" height="324" viewBox="0 0 336 324" fill="none" xmlns="http://www.w3.org/2000/svg">
<g filter="url(#filter0_dd_11:301)">
<path fill-rule="evenodd" clip-rule="evenodd" d="M322 5H14C9.02944 5 5 9.02944 5 14V310C5 314.971 9.02943 319 14 319H322C326.971 319 331 314.971 331 310V14C331 9.02944 326.971 5 322 5ZM14 4C8.47715 4 4 8.47716 4 14V310C4 315.523 8.47714 320 14 320H322C327.523 320 332 315.523 332 310V14C332 8.47715 327.523 4 322 4H14Z" fill="#008698"/>
</g>
<path d="M32 238C32 229.163 39.1634 222 48 222H288C296.837 222 304 229.163 304 238V238C304 246.837 296.837 254 288 254H48C39.1634 254 32 246.837 32 238V238Z" fill="#023437" fill-opacity="0.15"/>
<path d="M32 196C32 187.163 39.1634 180 48 180H288C296.837 180 304 187.163 304 196V196C304 204.837 296.837 212 288 212H48C39.1634 212 32 204.837 32 196V196Z" fill="#023437" fill-opacity="0.15"/>
<path d="M32 154C32 145.163 39.1634 138 48 138H288C296.837 138 304 145.163 304 154V154C304 162.837 296.837 170 288 170H48C39.1634 170 32 162.837 32 154V154Z" fill="#023437" fill-opacity="0.15"/>
<path d="M72 112C72 103.163 79.1634 96 88 96H288C296.837 96 304 103.163 304 112V112C304 120.837 296.837 128 288 128H88C79.1634 128 72 120.837 72 112V112Z" fill="#023437" fill-opacity="0.15"/>
<path d="M32 280C32 271.163 39.1634 264 48 264H128C136.837 264 144 271.163 144 280V280C144 288.837 136.837 296 128 296H48C39.1634 296 32 288.837 32 280V280Z" fill="#023437" fill-opacity="0.15"/>
<path d="M284.03 283.012V281.472L288.608 274.92H290.89V281.304H292.122V283.012H290.89V285H288.93V283.012H284.03ZM289.056 277.02L286.186 281.304H289.056V277.02Z" fill="#008698"/>
<path d="M244.58 277.482C244.626 276.549 244.953 275.83 245.56 275.326C246.176 274.813 246.983 274.556 247.982 274.556C248.663 274.556 249.246 274.677 249.732 274.92C250.217 275.153 250.581 275.475 250.824 275.886C251.076 276.287 251.202 276.745 251.202 277.258C251.202 277.846 251.048 278.345 250.74 278.756C250.441 279.157 250.082 279.428 249.662 279.568V279.624C250.203 279.792 250.623 280.091 250.922 280.52C251.23 280.949 251.384 281.5 251.384 282.172C251.384 282.732 251.253 283.231 250.992 283.67C250.74 284.109 250.362 284.454 249.858 284.706C249.363 284.949 248.766 285.07 248.066 285.07C247.011 285.07 246.152 284.804 245.49 284.272C244.827 283.74 244.477 282.956 244.44 281.92H246.344C246.362 282.377 246.516 282.746 246.806 283.026C247.104 283.297 247.51 283.432 248.024 283.432C248.5 283.432 248.864 283.301 249.116 283.04C249.377 282.769 249.508 282.424 249.508 282.004C249.508 281.444 249.33 281.043 248.976 280.8C248.621 280.557 248.07 280.436 247.324 280.436H246.918V278.826H247.324C248.649 278.826 249.312 278.383 249.312 277.496C249.312 277.095 249.19 276.782 248.948 276.558C248.714 276.334 248.374 276.222 247.926 276.222C247.487 276.222 247.146 276.343 246.904 276.586C246.67 276.819 246.535 277.118 246.498 277.482H244.58Z" fill="#008698"/>
<path d="M205.338 282.788C206.234 282.041 206.948 281.421 207.48 280.926C208.012 280.422 208.456 279.899 208.81 279.358C209.165 278.817 209.342 278.285 209.342 277.762C209.342 277.286 209.23 276.913 209.006 276.642C208.782 276.371 208.437 276.236 207.97 276.236C207.504 276.236 207.144 276.395 206.892 276.712C206.64 277.02 206.51 277.445 206.5 277.986H204.596C204.634 276.866 204.965 276.017 205.59 275.438C206.225 274.859 207.028 274.57 207.998 274.57C209.062 274.57 209.879 274.855 210.448 275.424C211.018 275.984 211.302 276.726 211.302 277.65C211.302 278.378 211.106 279.073 210.714 279.736C210.322 280.399 209.874 280.977 209.37 281.472C208.866 281.957 208.208 282.545 207.396 283.236H211.526V284.86H204.61V283.404L205.338 282.788Z" fill="#008698"/>
<path d="M165.968 276.6V274.794H169.342V285H167.326V276.6H165.968Z" fill="#008698"/>
<path d="M144 280C144 288.837 136.837 296 128 296C119.163 296 112 288.837 112 280C112 271.163 119.163 264 128 264C136.837 264 144 271.163 144 280Z" fill="#023437"/>
<path d="M119.944 277.482C119.991 276.549 120.318 275.83 120.924 275.326C121.54 274.813 122.348 274.556 123.346 274.556C124.028 274.556 124.611 274.677 125.096 274.92C125.582 275.153 125.946 275.475 126.188 275.886C126.44 276.287 126.566 276.745 126.566 277.258C126.566 277.846 126.412 278.345 126.104 278.756C125.806 279.157 125.446 279.428 125.026 279.568V279.624C125.568 279.792 125.988 280.091 126.286 280.52C126.594 280.949 126.748 281.5 126.748 282.172C126.748 282.732 126.618 283.231 126.356 283.67C126.104 284.109 125.726 284.454 125.222 284.706C124.728 284.949 124.13 285.07 123.43 285.07C122.376 285.07 121.517 284.804 120.854 284.272C120.192 283.74 119.842 282.956 119.804 281.92H121.708C121.727 282.377 121.881 282.746 122.17 283.026C122.469 283.297 122.875 283.432 123.388 283.432C123.864 283.432 124.228 283.301 124.48 283.04C124.742 282.769 124.872 282.424 124.872 282.004C124.872 281.444 124.695 281.043 124.34 280.8C123.986 280.557 123.435 280.436 122.688 280.436H122.282V278.826H122.688C124.014 278.826 124.676 278.383 124.676 277.496C124.676 277.095 124.555 276.782 124.312 276.558C124.079 276.334 123.738 276.222 123.29 276.222C122.852 276.222 122.511 276.343 122.268 276.586C122.035 276.819 121.9 277.118 121.862 277.482H119.944Z" fill="white"/>
<path d="M128.517 279.764C128.517 278.149 128.806 276.885 129.385 275.97C129.973 275.055 130.944 274.598 132.297 274.598C133.65 274.598 134.616 275.055 135.195 275.97C135.783 276.885 136.077 278.149 136.077 279.764C136.077 281.388 135.783 282.662 135.195 283.586C134.616 284.51 133.65 284.972 132.297 284.972C130.944 284.972 129.973 284.51 129.385 283.586C128.806 282.662 128.517 281.388 128.517 279.764ZM134.145 279.764C134.145 279.073 134.098 278.495 134.005 278.028C133.921 277.552 133.744 277.165 133.473 276.866C133.212 276.567 132.82 276.418 132.297 276.418C131.774 276.418 131.378 276.567 131.107 276.866C130.846 277.165 130.668 277.552 130.575 278.028C130.491 278.495 130.449 279.073 130.449 279.764C130.449 280.473 130.491 281.071 130.575 281.556C130.659 282.032 130.836 282.419 131.107 282.718C131.378 283.007 131.774 283.152 132.297 283.152C132.82 283.152 133.216 283.007 133.487 282.718C133.758 282.419 133.935 282.032 134.019 281.556C134.103 281.071 134.145 280.473 134.145 279.764Z" fill="white"/>
<path d="M80.8466 282.788C81.7426 282.041 82.4566 281.421 82.9886 280.926C83.5206 280.422 83.9639 279.899 84.3186 279.358C84.6733 278.817 84.8506 278.285 84.8506 277.762C84.8506 277.286 84.7386 276.913 84.5146 276.642C84.2906 276.371 83.9453 276.236 83.4786 276.236C83.0119 276.236 82.6526 276.395 82.4006 276.712C82.1486 277.02 82.0179 277.445 82.0086 277.986H80.1046C80.1419 276.866 80.4733 276.017 81.0986 275.438C81.7333 274.859 82.5359 274.57 83.5066 274.57C84.5706 274.57 85.3873 274.855 85.9566 275.424C86.5259 275.984 86.8106 276.726 86.8106 277.65C86.8106 278.378 86.6146 279.073 86.2226 279.736C85.8306 280.399 85.3826 280.977 84.8786 281.472C84.3746 281.957 83.7166 282.545 82.9046 283.236H87.0346V284.86H80.1186V283.404L80.8466 282.788Z" fill="white"/>
<path d="M90.7577 282.13C90.8323 282.541 91.0003 282.858 91.2617 283.082C91.5323 283.297 91.8917 283.404 92.3397 283.404C92.9183 283.404 93.3383 283.166 93.5997 282.69C93.861 282.205 93.9917 281.393 93.9917 280.254C93.777 280.553 93.4737 280.786 93.0817 280.954C92.699 281.122 92.2837 281.206 91.8357 281.206C91.2383 281.206 90.697 281.085 90.2117 280.842C89.7357 280.59 89.3577 280.221 89.0777 279.736C88.7977 279.241 88.6577 278.644 88.6577 277.944C88.6577 276.908 88.9657 276.087 89.5817 275.48C90.1977 274.864 91.0377 274.556 92.1017 274.556C93.427 274.556 94.3603 274.981 94.9017 275.83C95.4523 276.679 95.7277 277.958 95.7277 279.666C95.7277 280.879 95.6203 281.873 95.4057 282.648C95.2003 283.423 94.841 284.011 94.3277 284.412C93.8237 284.813 93.133 285.014 92.2557 285.014C91.565 285.014 90.977 284.883 90.4917 284.622C90.0063 284.351 89.633 284.001 89.3717 283.572C89.1197 283.133 88.975 282.653 88.9377 282.13H90.7577ZM92.2417 279.61C92.727 279.61 93.1097 279.461 93.3897 279.162C93.6697 278.863 93.8097 278.462 93.8097 277.958C93.8097 277.407 93.6603 276.983 93.3617 276.684C93.0723 276.376 92.6757 276.222 92.1717 276.222C91.6677 276.222 91.2663 276.381 90.9677 276.698C90.6783 277.006 90.5337 277.417 90.5337 277.93C90.5337 278.425 90.6737 278.831 90.9537 279.148C91.243 279.456 91.6723 279.61 92.2417 279.61Z" fill="white"/>
<path d="M64 280C64 288.837 56.8366 296 48 296C39.1634 296 32 288.837 32 280C32 271.163 39.1634 264 48 264C56.8366 264 64 271.163 64 280Z" fill="#023437"/>
<path d="M40.7304 282.788C41.6264 282.041 42.3404 281.421 42.8724 280.926C43.4044 280.422 43.8477 279.899 44.2024 279.358C44.5571 278.817 44.7344 278.285 44.7344 277.762C44.7344 277.286 44.6224 276.913 44.3984 276.642C44.1744 276.371 43.8291 276.236 43.3624 276.236C42.8957 276.236 42.5364 276.395 42.2844 276.712C42.0324 277.02 41.9017 277.445 41.8924 277.986H39.9884C40.0257 276.866 40.3571 276.017 40.9824 275.438C41.6171 274.859 42.4197 274.57 43.3904 274.57C44.4544 274.57 45.2711 274.855 45.8404 275.424C46.4097 275.984 46.6944 276.726 46.6944 277.65C46.6944 278.378 46.4984 279.073 46.1064 279.736C45.7144 280.399 45.2664 280.977 44.7624 281.472C44.2584 281.957 43.6004 282.545 42.7884 283.236H46.9184V284.86H40.0024V283.404L40.7304 282.788Z" fill="white"/>
<path d="M50.0815 279.596C49.1481 279.111 48.6815 278.359 48.6815 277.342C48.6815 276.838 48.8075 276.381 49.0595 275.97C49.3208 275.55 49.7081 275.219 50.2215 274.976C50.7441 274.724 51.3788 274.598 52.1255 274.598C52.8721 274.598 53.5021 274.724 54.0155 274.976C54.5381 275.219 54.9255 275.55 55.1775 275.97C55.4388 276.381 55.5695 276.838 55.5695 277.342C55.5695 277.855 55.4435 278.308 55.1915 278.7C54.9395 279.083 54.6035 279.381 54.1835 279.596C54.6968 279.82 55.0981 280.147 55.3875 280.576C55.6768 281.005 55.8215 281.514 55.8215 282.102C55.8215 282.737 55.6581 283.292 55.3315 283.768C55.0141 284.235 54.5755 284.594 54.0155 284.846C53.4555 285.098 52.8255 285.224 52.1255 285.224C51.4255 285.224 50.7955 285.098 50.2355 284.846C49.6848 284.594 49.2461 284.235 48.9195 283.768C48.6021 283.292 48.4435 282.737 48.4435 282.102C48.4435 281.514 48.5881 281.005 48.8775 280.576C49.1668 280.137 49.5681 279.811 50.0815 279.596ZM53.6655 277.622C53.6655 277.165 53.5255 276.81 53.2455 276.558C52.9748 276.306 52.6015 276.18 52.1255 276.18C51.6588 276.18 51.2855 276.306 51.0055 276.558C50.7348 276.81 50.5995 277.169 50.5995 277.636C50.5995 278.056 50.7395 278.392 51.0195 278.644C51.3088 278.896 51.6775 279.022 52.1255 279.022C52.5735 279.022 52.9421 278.896 53.2315 278.644C53.5208 278.383 53.6655 278.042 53.6655 277.622ZM52.1255 280.45C51.5935 280.45 51.1595 280.585 50.8235 280.856C50.4968 281.127 50.3335 281.514 50.3335 282.018C50.3335 282.485 50.4921 282.867 50.8095 283.166C51.1361 283.455 51.5748 283.6 52.1255 283.6C52.6761 283.6 53.1101 283.451 53.4275 283.152C53.7448 282.853 53.9035 282.475 53.9035 282.018C53.9035 281.523 53.7401 281.141 53.4135 280.87C53.0868 280.59 52.6575 280.45 52.1255 280.45Z" fill="white"/>
<path d="M281.393 240.788C282.289 240.041 283.003 239.421 283.535 238.926C284.067 238.422 284.511 237.899 284.865 237.358C285.22 236.817 285.397 236.285 285.397 235.762C285.397 235.286 285.285 234.913 285.061 234.642C284.837 234.371 284.492 234.236 284.025 234.236C283.559 234.236 283.199 234.395 282.947 234.712C282.695 235.02 282.565 235.445 282.555 235.986H280.651C280.689 234.866 281.02 234.017 281.645 233.438C282.28 232.859 283.083 232.57 284.053 232.57C285.117 232.57 285.934 232.855 286.503 233.424C287.073 233.984 287.357 234.726 287.357 235.65C287.357 236.378 287.161 237.073 286.769 237.736C286.377 238.399 285.929 238.977 285.425 239.472C284.921 239.957 284.263 240.545 283.451 241.236H287.581V242.86H280.665V241.404L281.393 240.788Z" fill="white"/>
<path d="M295.533 234.278L291.809 243H289.821L293.573 234.502H288.785V232.822H295.533V234.278Z" fill="white"/>
<path d="M240.751 240.788C241.647 240.041 242.361 239.421 242.893 238.926C243.425 238.422 243.868 237.899 244.223 237.358C244.578 236.817 244.755 236.285 244.755 235.762C244.755 235.286 244.643 234.913 244.419 234.642C244.195 234.371 243.85 234.236 243.383 234.236C242.916 234.236 242.557 234.395 242.305 234.712C242.053 235.02 241.922 235.445 241.913 235.986H240.009C240.046 234.866 240.378 234.017 241.003 233.438C241.638 232.859 242.44 232.57 243.411 232.57C244.475 232.57 245.292 232.855 245.861 233.424C246.43 233.984 246.715 234.726 246.715 235.65C246.715 236.378 246.519 237.073 246.127 237.736C245.735 238.399 245.287 238.977 244.783 239.472C244.279 239.957 243.621 240.545 242.809 241.236H246.939V242.86H240.023V241.404L240.751 240.788Z" fill="white"/>
<path d="M253.686 235.342C253.593 234.95 253.429 234.656 253.196 234.46C252.972 234.264 252.645 234.166 252.216 234.166C251.572 234.166 251.096 234.427 250.788 234.95C250.489 235.463 250.335 236.303 250.326 237.47C250.55 237.097 250.877 236.807 251.306 236.602C251.735 236.387 252.202 236.28 252.706 236.28C253.313 236.28 253.849 236.411 254.316 236.672C254.783 236.933 255.147 237.316 255.408 237.82C255.669 238.315 255.8 238.912 255.8 239.612C255.8 240.275 255.665 240.867 255.394 241.39C255.133 241.903 254.745 242.305 254.232 242.594C253.719 242.883 253.107 243.028 252.398 243.028C251.427 243.028 250.662 242.813 250.102 242.384C249.551 241.955 249.164 241.357 248.94 240.592C248.725 239.817 248.618 238.865 248.618 237.736C248.618 236.028 248.912 234.74 249.5 233.872C250.088 232.995 251.017 232.556 252.286 232.556C253.266 232.556 254.027 232.822 254.568 233.354C255.109 233.886 255.422 234.549 255.506 235.342H253.686ZM252.258 237.89C251.763 237.89 251.348 238.035 251.012 238.324C250.676 238.613 250.508 239.033 250.508 239.584C250.508 240.135 250.662 240.569 250.97 240.886C251.287 241.203 251.731 241.362 252.3 241.362C252.804 241.362 253.201 241.208 253.49 240.9C253.789 240.592 253.938 240.177 253.938 239.654C253.938 239.113 253.793 238.683 253.504 238.366C253.224 238.049 252.809 237.89 252.258 237.89Z" fill="white"/>
<path d="M224 238C224 246.837 216.837 254 208 254C199.163 254 192 246.837 192 238C192 229.163 199.163 222 208 222C216.837 222 224 229.163 224 238Z" fill="#023437"/>
<path d="M200.724 240.788C201.62 240.041 202.334 239.421 202.866 238.926C203.398 238.422 203.841 237.899 204.196 237.358C204.55 236.817 204.728 236.285 204.728 235.762C204.728 235.286 204.616 234.913 204.392 234.642C204.168 234.371 203.822 234.236 203.356 234.236C202.889 234.236 202.53 234.395 202.278 234.712C202.026 235.02 201.895 235.445 201.886 235.986H199.982C200.019 234.866 200.35 234.017 200.976 233.438C201.61 232.859 202.413 232.57 203.384 232.57C204.448 232.57 205.264 232.855 205.834 233.424C206.403 233.984 206.688 234.726 206.688 235.65C206.688 236.378 206.492 237.073 206.1 237.736C205.708 238.399 205.26 238.977 204.756 239.472C204.252 239.957 203.594 240.545 202.782 241.236H206.912V242.86H199.996V241.404L200.724 240.788Z" fill="white"/>
<path d="M215.227 234.488H210.691V236.882C210.887 236.639 211.167 236.443 211.531 236.294C211.895 236.135 212.282 236.056 212.693 236.056C213.439 236.056 214.051 236.219 214.527 236.546C215.003 236.873 215.348 237.293 215.563 237.806C215.777 238.31 215.885 238.851 215.885 239.43C215.885 240.503 215.577 241.367 214.961 242.02C214.354 242.673 213.486 243 212.357 243C211.293 243 210.443 242.734 209.809 242.202C209.174 241.67 208.815 240.975 208.731 240.116H210.635C210.719 240.489 210.905 240.788 211.195 241.012C211.493 241.236 211.871 241.348 212.329 241.348C212.879 241.348 213.295 241.175 213.575 240.83C213.855 240.485 213.995 240.027 213.995 239.458C213.995 238.879 213.85 238.441 213.561 238.142C213.281 237.834 212.865 237.68 212.315 237.68C211.923 237.68 211.596 237.778 211.335 237.974C211.073 238.17 210.887 238.431 210.775 238.758H208.899V232.766H215.227V234.488Z" fill="white"/>
<path d="M160.601 240.788C161.497 240.041 162.211 239.421 162.743 238.926C163.275 238.422 163.718 237.899 164.073 237.358C164.427 236.817 164.605 236.285 164.605 235.762C164.605 235.286 164.493 234.913 164.269 234.642C164.045 234.371 163.699 234.236 163.233 234.236C162.766 234.236 162.407 234.395 162.155 234.712C161.903 235.02 161.772 235.445 161.763 235.986H159.859C159.896 234.866 160.227 234.017 160.853 233.438C161.487 232.859 162.29 232.57 163.261 232.57C164.325 232.57 165.141 232.855 165.711 233.424C166.28 233.984 166.565 234.726 166.565 235.65C166.565 236.378 166.369 237.073 165.977 237.736C165.585 238.399 165.137 238.977 164.633 239.472C164.129 239.957 163.471 240.545 162.659 241.236H166.789V242.86H159.873V241.404L160.601 240.788Z" fill="white"/>
<path d="M168.16 241.012V239.472L172.738 232.92H175.02V239.304H176.252V241.012H175.02V243H173.06V241.012H168.16ZM173.186 235.02L170.316 239.304H173.186V235.02Z" fill="white"/>
<path d="M121.038 240.788C121.934 240.041 122.648 239.421 123.18 238.926C123.712 238.422 124.155 237.899 124.51 237.358C124.865 236.817 125.042 236.285 125.042 235.762C125.042 235.286 124.93 234.913 124.706 234.642C124.482 234.371 124.137 234.236 123.67 234.236C123.203 234.236 122.844 234.395 122.592 234.712C122.34 235.02 122.209 235.445 122.2 235.986H120.296C120.333 234.866 120.665 234.017 121.29 233.438C121.925 232.859 122.727 232.57 123.698 232.57C124.762 232.57 125.579 232.855 126.148 233.424C126.717 233.984 127.002 234.726 127.002 235.65C127.002 236.378 126.806 237.073 126.414 237.736C126.022 238.399 125.574 238.977 125.07 239.472C124.566 239.957 123.908 240.545 123.096 241.236H127.226V242.86H120.31V241.404L121.038 240.788Z" fill="white"/>
<path d="M128.709 235.482C128.756 234.549 129.082 233.83 129.689 233.326C130.305 232.813 131.112 232.556 132.111 232.556C132.792 232.556 133.376 232.677 133.861 232.92C134.346 233.153 134.71 233.475 134.953 233.886C135.205 234.287 135.331 234.745 135.331 235.258C135.331 235.846 135.177 236.345 134.869 236.756C134.57 237.157 134.211 237.428 133.791 237.568V237.624C134.332 237.792 134.752 238.091 135.051 238.52C135.359 238.949 135.513 239.5 135.513 240.172C135.513 240.732 135.382 241.231 135.121 241.67C134.869 242.109 134.491 242.454 133.987 242.706C133.492 242.949 132.895 243.07 132.195 243.07C131.14 243.07 130.282 242.804 129.619 242.272C128.956 241.74 128.606 240.956 128.569 239.92H130.473C130.492 240.377 130.646 240.746 130.935 241.026C131.234 241.297 131.64 241.432 132.153 241.432C132.629 241.432 132.993 241.301 133.245 241.04C133.506 240.769 133.637 240.424 133.637 240.004C133.637 239.444 133.46 239.043 133.105 238.8C132.75 238.557 132.2 238.436 131.453 238.436H131.047V236.826H131.453C132.778 236.826 133.441 236.383 133.441 235.496C133.441 235.095 133.32 234.782 133.077 234.558C132.844 234.334 132.503 234.222 132.055 234.222C131.616 234.222 131.276 234.343 131.033 234.586C130.8 234.819 130.664 235.118 130.627 235.482H128.709Z" fill="white"/>
<path d="M104 238C104 246.837 96.8366 254 88 254C79.1634 254 72 246.837 72 238C72 229.163 79.1634 222 88 222C96.8366 222 104 229.163 104 238Z" fill="#023437"/>
<path d="M81.2089 240.788C82.1049 240.041 82.8189 239.421 83.3509 238.926C83.8829 238.422 84.3263 237.899 84.6809 237.358C85.0356 236.817 85.2129 236.285 85.2129 235.762C85.2129 235.286 85.1009 234.913 84.8769 234.642C84.6529 234.371 84.3076 234.236 83.8409 234.236C83.3743 234.236 83.0149 234.395 82.7629 234.712C82.5109 235.02 82.3803 235.445 82.3709 235.986H80.4669C80.5043 234.866 80.8356 234.017 81.4609 233.438C82.0956 232.859 82.8983 232.57 83.8689 232.57C84.9329 232.57 85.7496 232.855 86.3189 233.424C86.8883 233.984 87.1729 234.726 87.1729 235.65C87.1729 236.378 86.9769 237.073 86.5849 237.736C86.1929 238.399 85.7449 238.977 85.2409 239.472C84.7369 239.957 84.0789 240.545 83.2669 241.236H87.3969V242.86H80.4809V241.404L81.2089 240.788Z" fill="white"/>
<path d="M89.468 240.788C90.364 240.041 91.078 239.421 91.61 238.926C92.142 238.422 92.5853 237.899 92.94 237.358C93.2946 236.817 93.472 236.285 93.472 235.762C93.472 235.286 93.36 234.913 93.136 234.642C92.912 234.371 92.5666 234.236 92.1 234.236C91.6333 234.236 91.274 234.395 91.022 234.712C90.77 235.02 90.6393 235.445 90.63 235.986H88.726C88.7633 234.866 89.0946 234.017 89.72 233.438C90.3546 232.859 91.1573 232.57 92.128 232.57C93.192 232.57 94.0086 232.855 94.578 233.424C95.1473 233.984 95.432 234.726 95.432 235.65C95.432 236.378 95.236 237.073 94.844 237.736C94.452 238.399 94.004 238.977 93.5 239.472C92.996 239.957 92.338 240.545 91.526 241.236H95.656V242.86H88.74V241.404L89.468 240.788Z" fill="white"/>
<path d="M42.6923 240.788C43.5883 240.041 44.3023 239.421 44.8343 238.926C45.3663 238.422 45.8097 237.899 46.1643 237.358C46.519 236.817 46.6963 236.285 46.6963 235.762C46.6963 235.286 46.5843 234.913 46.3603 234.642C46.1363 234.371 45.791 234.236 45.3243 234.236C44.8577 234.236 44.4983 234.395 44.2463 234.712C43.9943 235.02 43.8637 235.445 43.8543 235.986H41.9503C41.9877 234.866 42.319 234.017 42.9443 233.438C43.579 232.859 44.3817 232.57 45.3523 232.57C46.4163 232.57 47.233 232.855 47.8023 233.424C48.3717 233.984 48.6563 234.726 48.6563 235.65C48.6563 236.378 48.4603 237.073 48.0683 237.736C47.6763 238.399 47.2283 238.977 46.7243 239.472C46.2203 239.957 45.5623 240.545 44.7503 241.236H48.8803V242.86H41.9643V241.404L42.6923 240.788Z" fill="white"/>
<path d="M50.0974 234.6V232.794H53.4714V243H51.4554V234.6H50.0974Z" fill="white"/>
<path d="M280.703 198.788C281.599 198.041 282.313 197.421 282.845 196.926C283.377 196.422 283.82 195.899 284.175 195.358C284.53 194.817 284.707 194.285 284.707 193.762C284.707 193.286 284.595 192.913 284.371 192.642C284.147 192.371 283.802 192.236 283.335 192.236C282.868 192.236 282.509 192.395 282.257 192.712C282.005 193.02 281.874 193.445 281.865 193.986H279.961C279.998 192.866 280.33 192.017 280.955 191.438C281.59 190.859 282.392 190.57 283.363 190.57C284.427 190.57 285.244 190.855 285.813 191.424C286.382 191.984 286.667 192.726 286.667 193.65C286.667 194.378 286.471 195.073 286.079 195.736C285.687 196.399 285.239 196.977 284.735 197.472C284.231 197.957 283.573 198.545 282.761 199.236H286.891V200.86H279.975V199.404L280.703 198.788Z" fill="white"/>
<path d="M288.346 195.764C288.346 194.149 288.635 192.885 289.214 191.97C289.802 191.055 290.773 190.598 292.126 190.598C293.479 190.598 294.445 191.055 295.024 191.97C295.612 192.885 295.906 194.149 295.906 195.764C295.906 197.388 295.612 198.662 295.024 199.586C294.445 200.51 293.479 200.972 292.126 200.972C290.773 200.972 289.802 200.51 289.214 199.586C288.635 198.662 288.346 197.388 288.346 195.764ZM293.974 195.764C293.974 195.073 293.927 194.495 293.834 194.028C293.75 193.552 293.573 193.165 293.302 192.866C293.041 192.567 292.649 192.418 292.126 192.418C291.603 192.418 291.207 192.567 290.936 192.866C290.675 193.165 290.497 193.552 290.404 194.028C290.32 194.495 290.278 195.073 290.278 195.764C290.278 196.473 290.32 197.071 290.404 197.556C290.488 198.032 290.665 198.419 290.936 198.718C291.207 199.007 291.603 199.152 292.126 199.152C292.649 199.152 293.045 199.007 293.316 198.718C293.587 198.419 293.764 198.032 293.848 197.556C293.932 197.071 293.974 196.473 293.974 195.764Z" fill="white"/>
<path d="M264 196C264 204.837 256.837 212 248 212C239.163 212 232 204.837 232 196C232 187.163 239.163 180 248 180C256.837 180 264 187.163 264 196Z" fill="#023437"/>
<path d="M241.476 192.6V190.794H244.85V201H242.834V192.6H241.476Z" fill="white"/>
<path d="M249.274 198.13C249.349 198.541 249.517 198.858 249.778 199.082C250.049 199.297 250.408 199.404 250.856 199.404C251.435 199.404 251.855 199.166 252.116 198.69C252.378 198.205 252.508 197.393 252.508 196.254C252.294 196.553 251.99 196.786 251.598 196.954C251.216 197.122 250.8 197.206 250.352 197.206C249.755 197.206 249.214 197.085 248.728 196.842C248.252 196.59 247.874 196.221 247.594 195.736C247.314 195.241 247.174 194.644 247.174 193.944C247.174 192.908 247.482 192.087 248.098 191.48C248.714 190.864 249.554 190.556 250.618 190.556C251.944 190.556 252.877 190.981 253.418 191.83C253.969 192.679 254.244 193.958 254.244 195.666C254.244 196.879 254.137 197.873 253.922 198.648C253.717 199.423 253.358 200.011 252.844 200.412C252.34 200.813 251.65 201.014 250.772 201.014C250.082 201.014 249.494 200.883 249.008 200.622C248.523 200.351 248.15 200.001 247.888 199.572C247.636 199.133 247.492 198.653 247.454 198.13H249.274ZM250.758 195.61C251.244 195.61 251.626 195.461 251.906 195.162C252.186 194.863 252.326 194.462 252.326 193.958C252.326 193.407 252.177 192.983 251.878 192.684C251.589 192.376 251.192 192.222 250.688 192.222C250.184 192.222 249.783 192.381 249.484 192.698C249.195 193.006 249.05 193.417 249.05 193.93C249.05 194.425 249.19 194.831 249.47 195.148C249.76 195.456 250.189 195.61 250.758 195.61Z" fill="white"/>
<path d="M201.36 192.6V190.794H204.734V201H202.718V192.6H201.36Z" fill="white"/>
<path d="M208.598 195.596C207.665 195.111 207.198 194.359 207.198 193.342C207.198 192.838 207.324 192.381 207.576 191.97C207.837 191.55 208.225 191.219 208.738 190.976C209.261 190.724 209.895 190.598 210.642 190.598C211.389 190.598 212.019 190.724 212.532 190.976C213.055 191.219 213.442 191.55 213.694 191.97C213.955 192.381 214.086 192.838 214.086 193.342C214.086 193.855 213.96 194.308 213.708 194.7C213.456 195.083 213.12 195.381 212.7 195.596C213.213 195.82 213.615 196.147 213.904 196.576C214.193 197.005 214.338 197.514 214.338 198.102C214.338 198.737 214.175 199.292 213.848 199.768C213.531 200.235 213.092 200.594 212.532 200.846C211.972 201.098 211.342 201.224 210.642 201.224C209.942 201.224 209.312 201.098 208.752 200.846C208.201 200.594 207.763 200.235 207.436 199.768C207.119 199.292 206.96 198.737 206.96 198.102C206.96 197.514 207.105 197.005 207.394 196.576C207.683 196.137 208.085 195.811 208.598 195.596ZM212.182 193.622C212.182 193.165 212.042 192.81 211.762 192.558C211.491 192.306 211.118 192.18 210.642 192.18C210.175 192.18 209.802 192.306 209.522 192.558C209.251 192.81 209.116 193.169 209.116 193.636C209.116 194.056 209.256 194.392 209.536 194.644C209.825 194.896 210.194 195.022 210.642 195.022C211.09 195.022 211.459 194.896 211.748 194.644C212.037 194.383 212.182 194.042 212.182 193.622ZM210.642 196.45C210.11 196.45 209.676 196.585 209.34 196.856C209.013 197.127 208.85 197.514 208.85 198.018C208.85 198.485 209.009 198.867 209.326 199.166C209.653 199.455 210.091 199.6 210.642 199.6C211.193 199.6 211.627 199.451 211.944 199.152C212.261 198.853 212.42 198.475 212.42 198.018C212.42 197.523 212.257 197.141 211.93 196.87C211.603 196.59 211.174 196.45 210.642 196.45Z" fill="white"/>
<path d="M162.023 192.6V190.794H165.397V201H163.381V192.6H162.023Z" fill="white"/>
<path d="M174.049 192.278L170.325 201H168.337L172.089 192.502H167.301V190.822H174.049V192.278Z" fill="white"/>
<path d="M144 196C144 204.837 136.837 212 128 212C119.163 212 112 204.837 112 196C112 187.163 119.163 180 128 180C136.837 180 144 187.163 144 196Z" fill="#023437"/>
<path d="M121.38 192.6V190.794H124.754V201H122.738V192.6H121.38Z" fill="white"/>
<path d="M132.203 193.342C132.109 192.95 131.946 192.656 131.713 192.46C131.489 192.264 131.162 192.166 130.733 192.166C130.089 192.166 129.613 192.427 129.305 192.95C129.006 193.463 128.852 194.303 128.843 195.47C129.067 195.097 129.393 194.807 129.823 194.602C130.252 194.387 130.719 194.28 131.223 194.28C131.829 194.28 132.366 194.411 132.833 194.672C133.299 194.933 133.663 195.316 133.925 195.82C134.186 196.315 134.317 196.912 134.317 197.612C134.317 198.275 134.181 198.867 133.911 199.39C133.649 199.903 133.262 200.305 132.749 200.594C132.235 200.883 131.624 201.028 130.915 201.028C129.944 201.028 129.179 200.813 128.619 200.384C128.068 199.955 127.681 199.357 127.457 198.592C127.242 197.817 127.135 196.865 127.135 195.736C127.135 194.028 127.429 192.74 128.017 191.872C128.605 190.995 129.533 190.556 130.803 190.556C131.783 190.556 132.543 190.822 133.085 191.354C133.626 191.886 133.939 192.549 134.023 193.342H132.203ZM130.775 195.89C130.28 195.89 129.865 196.035 129.529 196.324C129.193 196.613 129.025 197.033 129.025 197.584C129.025 198.135 129.179 198.569 129.487 198.886C129.804 199.203 130.247 199.362 130.817 199.362C131.321 199.362 131.717 199.208 132.007 198.9C132.305 198.592 132.455 198.177 132.455 197.654C132.455 197.113 132.31 196.683 132.021 196.366C131.741 196.049 131.325 195.89 130.775 195.89Z" fill="white"/>
<path d="M81.353 192.6V190.794H84.727V201H82.711V192.6H81.353Z" fill="white"/>
<path d="M93.7433 192.488H89.2073V194.882C89.4033 194.639 89.6833 194.443 90.0473 194.294C90.4113 194.135 90.7986 194.056 91.2093 194.056C91.956 194.056 92.5673 194.219 93.0433 194.546C93.5193 194.873 93.8646 195.293 94.0793 195.806C94.294 196.31 94.4013 196.851 94.4013 197.43C94.4013 198.503 94.0933 199.367 93.4773 200.02C92.8706 200.673 92.0026 201 90.8733 201C89.8093 201 88.96 200.734 88.3253 200.202C87.6906 199.67 87.3313 198.975 87.2473 198.116H89.1513C89.2353 198.489 89.422 198.788 89.7113 199.012C90.01 199.236 90.388 199.348 90.8453 199.348C91.396 199.348 91.8113 199.175 92.0913 198.83C92.3713 198.485 92.5113 198.027 92.5113 197.458C92.5113 196.879 92.3666 196.441 92.0773 196.142C91.7973 195.834 91.382 195.68 90.8313 195.68C90.4393 195.68 90.1126 195.778 89.8513 195.974C89.59 196.17 89.4033 196.431 89.2913 196.758H87.4153V190.766H93.7433V192.488Z" fill="white"/>
<path d="M41.23 192.6V190.794H44.604V201H42.588V192.6H41.23Z" fill="white"/>
<path d="M46.6762 199.012V197.472L51.2542 190.92H53.5362V197.304H54.7682V199.012H53.5362V201H51.5762V199.012H46.6762ZM51.7022 193.02L48.8322 197.304H51.7022V193.02Z" fill="white"/>
<path d="M304 154C304 162.837 296.837 170 288 170C279.163 170 272 162.837 272 154C272 145.163 279.163 138 288 138C296.837 138 304 145.163 304 154Z" fill="#023437"/>
<path d="M281.667 150.6V148.794H285.041V159H283.025V150.6H281.667Z" fill="white"/>
<path d="M287.226 151.482C287.272 150.549 287.599 149.83 288.206 149.326C288.822 148.813 289.629 148.556 290.628 148.556C291.309 148.556 291.892 148.677 292.378 148.92C292.863 149.153 293.227 149.475 293.47 149.886C293.722 150.287 293.848 150.745 293.848 151.258C293.848 151.846 293.694 152.345 293.386 152.756C293.087 153.157 292.728 153.428 292.308 153.568V153.624C292.849 153.792 293.269 154.091 293.568 154.52C293.876 154.949 294.03 155.5 294.03 156.172C294.03 156.732 293.899 157.231 293.638 157.67C293.386 158.109 293.008 158.454 292.504 158.706C292.009 158.949 291.412 159.07 290.712 159.07C289.657 159.07 288.798 158.804 288.136 158.272C287.473 157.74 287.123 156.956 287.086 155.92H288.99C289.008 156.377 289.162 156.746 289.452 157.026C289.75 157.297 290.156 157.432 290.67 157.432C291.146 157.432 291.51 157.301 291.762 157.04C292.023 156.769 292.154 156.424 292.154 156.004C292.154 155.444 291.976 155.043 291.622 154.8C291.267 154.557 290.716 154.436 289.97 154.436H289.564V152.826H289.97C291.295 152.826 291.958 152.383 291.958 151.496C291.958 151.095 291.836 150.782 291.594 150.558C291.36 150.334 291.02 150.222 290.572 150.222C290.133 150.222 289.792 150.343 289.55 150.586C289.316 150.819 289.181 151.118 289.144 151.482H287.226Z" fill="white"/>
<path d="M241.838 150.6V148.794H245.212V159H243.196V150.6H241.838Z" fill="white"/>
<path d="M247.985 156.788C248.881 156.041 249.595 155.421 250.127 154.926C250.659 154.422 251.102 153.899 251.457 153.358C251.811 152.817 251.989 152.285 251.989 151.762C251.989 151.286 251.877 150.913 251.653 150.642C251.429 150.371 251.083 150.236 250.617 150.236C250.15 150.236 249.791 150.395 249.539 150.712C249.287 151.02 249.156 151.445 249.147 151.986H247.243C247.28 150.866 247.611 150.017 248.237 149.438C248.871 148.859 249.674 148.57 250.645 148.57C251.709 148.57 252.525 148.855 253.095 149.424C253.664 149.984 253.949 150.726 253.949 151.65C253.949 152.378 253.753 153.073 253.361 153.736C252.969 154.399 252.521 154.977 252.017 155.472C251.513 155.957 250.855 156.545 250.043 157.236H254.173V158.86H247.257V157.404L247.985 156.788Z" fill="white"/>
<path d="M203.322 150.6V148.794H206.696V159H204.68V150.6H203.322Z" fill="white"/>
<path d="M208.614 150.6V148.794H211.988V159H209.972V150.6H208.614Z" fill="white"/>
<path d="M184 154C184 162.837 176.837 170 168 170C159.163 170 152 162.837 152 154C152 145.163 159.163 138 168 138C176.837 138 184 145.163 184 154Z" fill="#023437"/>
<path d="M161.333 150.6V148.794H164.707V159H162.691V150.6H161.333Z" fill="white"/>
<path d="M166.863 153.764C166.863 152.149 167.152 150.885 167.731 149.97C168.319 149.055 169.289 148.598 170.643 148.598C171.996 148.598 172.962 149.055 173.541 149.97C174.129 150.885 174.423 152.149 174.423 153.764C174.423 155.388 174.129 156.662 173.541 157.586C172.962 158.51 171.996 158.972 170.643 158.972C169.289 158.972 168.319 158.51 167.731 157.586C167.152 156.662 166.863 155.388 166.863 153.764ZM172.491 153.764C172.491 153.073 172.444 152.495 172.351 152.028C172.267 151.552 172.089 151.165 171.819 150.866C171.557 150.567 171.165 150.418 170.643 150.418C170.12 150.418 169.723 150.567 169.453 150.866C169.191 151.165 169.014 151.552 168.921 152.028C168.837 152.495 168.795 153.073 168.795 153.764C168.795 154.473 168.837 155.071 168.921 155.556C169.005 156.032 169.182 156.419 169.453 156.718C169.723 157.007 170.12 157.152 170.643 157.152C171.165 157.152 171.562 157.007 171.833 156.718C172.103 156.419 172.281 156.032 172.365 155.556C172.449 155.071 172.491 154.473 172.491 153.764Z" fill="white"/>
<path d="M126.628 156.13C126.703 156.541 126.871 156.858 127.132 157.082C127.403 157.297 127.762 157.404 128.21 157.404C128.789 157.404 129.209 157.166 129.47 156.69C129.732 156.205 129.862 155.393 129.862 154.254C129.648 154.553 129.344 154.786 128.952 154.954C128.57 155.122 128.154 155.206 127.706 155.206C127.109 155.206 126.568 155.085 126.082 154.842C125.606 154.59 125.228 154.221 124.948 153.736C124.668 153.241 124.528 152.644 124.528 151.944C124.528 150.908 124.836 150.087 125.452 149.48C126.068 148.864 126.908 148.556 127.972 148.556C129.298 148.556 130.231 148.981 130.772 149.83C131.323 150.679 131.598 151.958 131.598 153.666C131.598 154.879 131.491 155.873 131.276 156.648C131.071 157.423 130.712 158.011 130.198 158.412C129.694 158.813 129.004 159.014 128.126 159.014C127.436 159.014 126.848 158.883 126.362 158.622C125.877 158.351 125.504 158.001 125.242 157.572C124.99 157.133 124.846 156.653 124.808 156.13H126.628ZM128.112 153.61C128.598 153.61 128.98 153.461 129.26 153.162C129.54 152.863 129.68 152.462 129.68 151.958C129.68 151.407 129.531 150.983 129.232 150.684C128.943 150.376 128.546 150.222 128.042 150.222C127.538 150.222 127.137 150.381 126.838 150.698C126.549 151.006 126.404 151.417 126.404 151.93C126.404 152.425 126.544 152.831 126.824 153.148C127.114 153.456 127.543 153.61 128.112 153.61Z" fill="white"/>
<path d="M85.952 153.596C85.0186 153.111 84.552 152.359 84.552 151.342C84.552 150.838 84.678 150.381 84.93 149.97C85.1913 149.55 85.5786 149.219 86.092 148.976C86.6146 148.724 87.2493 148.598 87.996 148.598C88.7426 148.598 89.3726 148.724 89.886 148.976C90.4086 149.219 90.796 149.55 91.048 149.97C91.3093 150.381 91.44 150.838 91.44 151.342C91.44 151.855 91.314 152.308 91.062 152.7C90.81 153.083 90.474 153.381 90.054 153.596C90.5673 153.82 90.9686 154.147 91.258 154.576C91.5473 155.005 91.692 155.514 91.692 156.102C91.692 156.737 91.5286 157.292 91.202 157.768C90.8846 158.235 90.446 158.594 89.886 158.846C89.326 159.098 88.696 159.224 87.996 159.224C87.296 159.224 86.666 159.098 86.106 158.846C85.5553 158.594 85.1166 158.235 84.79 157.768C84.4726 157.292 84.314 156.737 84.314 156.102C84.314 155.514 84.4586 155.005 84.748 154.576C85.0373 154.137 85.4386 153.811 85.952 153.596ZM89.536 151.622C89.536 151.165 89.396 150.81 89.116 150.558C88.8453 150.306 88.472 150.18 87.996 150.18C87.5293 150.18 87.156 150.306 86.876 150.558C86.6053 150.81 86.47 151.169 86.47 151.636C86.47 152.056 86.61 152.392 86.89 152.644C87.1793 152.896 87.548 153.022 87.996 153.022C88.444 153.022 88.8126 152.896 89.102 152.644C89.3913 152.383 89.536 152.042 89.536 151.622ZM87.996 154.45C87.464 154.45 87.03 154.585 86.694 154.856C86.3673 155.127 86.204 155.514 86.204 156.018C86.204 156.485 86.3626 156.867 86.68 157.166C87.0066 157.455 87.4453 157.6 87.996 157.6C88.5466 157.6 88.9806 157.451 89.298 157.152C89.6153 156.853 89.774 156.475 89.774 156.018C89.774 155.523 89.6106 155.141 89.284 154.87C88.9573 154.59 88.528 154.45 87.996 154.45Z" fill="white"/>
<path d="M64 154C64 162.837 56.8366 170 48 170C39.1634 170 32 162.837 32 154C32 145.163 39.1634 138 48 138C56.8366 138 64 145.163 64 154Z" fill="#023437"/>
<path d="M51.403 150.278L47.679 159H45.691L49.443 150.502H44.655V148.822H51.403V150.278Z" fill="white"/>
<path d="M289.556 109.342C289.463 108.95 289.3 108.656 289.066 108.46C288.842 108.264 288.516 108.166 288.086 108.166C287.442 108.166 286.966 108.427 286.658 108.95C286.36 109.463 286.206 110.303 286.196 111.47C286.42 111.097 286.747 110.807 287.176 110.602C287.606 110.387 288.072 110.28 288.576 110.28C289.183 110.28 289.72 110.411 290.186 110.672C290.653 110.933 291.017 111.316 291.278 111.82C291.54 112.315 291.67 112.912 291.67 113.612C291.67 114.275 291.535 114.867 291.264 115.39C291.003 115.903 290.616 116.305 290.102 116.594C289.589 116.883 288.978 117.028 288.268 117.028C287.298 117.028 286.532 116.813 285.972 116.384C285.422 115.955 285.034 115.357 284.81 114.592C284.596 113.817 284.488 112.865 284.488 111.736C284.488 110.028 284.782 108.74 285.37 107.872C285.958 106.995 286.887 106.556 288.156 106.556C289.136 106.556 289.897 106.822 290.438 107.354C290.98 107.886 291.292 108.549 291.376 109.342H289.556ZM288.128 111.89C287.634 111.89 287.218 112.035 286.882 112.324C286.546 112.613 286.378 113.033 286.378 113.584C286.378 114.135 286.532 114.569 286.84 114.886C287.158 115.203 287.601 115.362 288.17 115.362C288.674 115.362 289.071 115.208 289.36 114.9C289.659 114.592 289.808 114.177 289.808 113.654C289.808 113.113 289.664 112.683 289.374 112.366C289.094 112.049 288.679 111.89 288.128 111.89Z" fill="white"/>
<path d="M251.097 108.488H246.561V110.882C246.757 110.639 247.037 110.443 247.401 110.294C247.765 110.135 248.152 110.056 248.563 110.056C249.31 110.056 249.921 110.219 250.397 110.546C250.873 110.873 251.218 111.293 251.433 111.806C251.648 112.31 251.755 112.851 251.755 113.43C251.755 114.503 251.447 115.367 250.831 116.02C250.224 116.673 249.356 117 248.227 117C247.163 117 246.314 116.734 245.679 116.202C245.044 115.67 244.685 114.975 244.601 114.116H246.505C246.589 114.489 246.776 114.788 247.065 115.012C247.364 115.236 247.742 115.348 248.199 115.348C248.75 115.348 249.165 115.175 249.445 114.83C249.725 114.485 249.865 114.027 249.865 113.458C249.865 112.879 249.72 112.441 249.431 112.142C249.151 111.834 248.736 111.68 248.185 111.68C247.793 111.68 247.466 111.778 247.205 111.974C246.944 112.17 246.757 112.431 246.645 112.758H244.769V106.766H251.097V108.488Z" fill="white"/>
<path d="M224 112C224 120.837 216.837 128 208 128C199.163 128 192 120.837 192 112C192 103.163 199.163 96 208 96C216.837 96 224 103.163 224 112Z" fill="#023437"/>
<path d="M204.03 115.012V113.472L208.608 106.92H210.89V113.304H212.122V115.012H210.89V117H208.93V115.012H204.03ZM209.056 109.02L206.186 113.304H209.056V109.02Z" fill="white"/>
<path d="M164.58 109.482C164.626 108.549 164.953 107.83 165.56 107.326C166.176 106.813 166.983 106.556 167.982 106.556C168.663 106.556 169.246 106.677 169.732 106.92C170.217 107.153 170.581 107.475 170.824 107.886C171.076 108.287 171.202 108.745 171.202 109.258C171.202 109.846 171.048 110.345 170.74 110.756C170.441 111.157 170.082 111.428 169.662 111.568V111.624C170.203 111.792 170.623 112.091 170.922 112.52C171.23 112.949 171.384 113.5 171.384 114.172C171.384 114.732 171.253 115.231 170.992 115.67C170.74 116.109 170.362 116.454 169.858 116.706C169.363 116.949 168.766 117.07 168.066 117.07C167.011 117.07 166.152 116.804 165.49 116.272C164.827 115.74 164.477 114.956 164.44 113.92H166.344C166.362 114.377 166.516 114.746 166.806 115.026C167.104 115.297 167.51 115.432 168.024 115.432C168.5 115.432 168.864 115.301 169.116 115.04C169.377 114.769 169.508 114.424 169.508 114.004C169.508 113.444 169.33 113.043 168.976 112.8C168.621 112.557 168.07 112.436 167.324 112.436H166.918V110.826H167.324C168.649 110.826 169.312 110.383 169.312 109.496C169.312 109.095 169.19 108.782 168.948 108.558C168.714 108.334 168.374 108.222 167.926 108.222C167.487 108.222 167.146 108.343 166.904 108.586C166.67 108.819 166.535 109.118 166.498 109.482H164.58Z" fill="white"/>
<path d="M125.338 114.788C126.234 114.041 126.948 113.421 127.48 112.926C128.012 112.422 128.456 111.899 128.81 111.358C129.165 110.817 129.342 110.285 129.342 109.762C129.342 109.286 129.23 108.913 129.006 108.642C128.782 108.371 128.437 108.236 127.97 108.236C127.504 108.236 127.144 108.395 126.892 108.712C126.64 109.02 126.51 109.445 126.5 109.986H124.596C124.634 108.866 124.965 108.017 125.59 107.438C126.225 106.859 127.028 106.57 127.998 106.57C129.062 106.57 129.879 106.855 130.448 107.424C131.018 107.984 131.302 108.726 131.302 109.65C131.302 110.378 131.106 111.073 130.714 111.736C130.322 112.399 129.874 112.977 129.37 113.472C128.866 113.957 128.208 114.545 127.396 115.236H131.526V116.86H124.61V115.404L125.338 114.788Z" fill="white"/>
<path d="M104 112C104 120.837 96.8366 128 88 128C79.1634 128 72 120.837 72 112C72 103.163 79.1634 96 88 96C96.8366 96 104 103.163 104 112Z" fill="#023437"/>
<path d="M85.9679 108.6V106.794H89.3419V117H87.3259V108.6H85.9679Z" fill="white"/>
<path d="M41.9335 109.482C41.9801 108.549 42.3068 107.83 42.9135 107.326C43.5295 106.813 44.3368 106.556 45.3355 106.556C46.0168 106.556 46.6001 106.677 47.0855 106.92C47.5708 107.153 47.9348 107.475 48.1775 107.886C48.4295 108.287 48.5555 108.745 48.5555 109.258C48.5555 109.846 48.4015 110.345 48.0935 110.756C47.7948 111.157 47.4355 111.428 47.0155 111.568V111.624C47.5568 111.792 47.9768 112.091 48.2755 112.52C48.5835 112.949 48.7375 113.5 48.7375 114.172C48.7375 114.732 48.6068 115.231 48.3455 115.67C48.0935 116.109 47.7155 116.454 47.2115 116.706C46.7168 116.949 46.1195 117.07 45.4195 117.07C44.3648 117.07 43.5061 116.804 42.8435 116.272C42.1808 115.74 41.8308 114.956 41.7935 113.92H43.6975C43.7161 114.377 43.8701 114.746 44.1595 115.026C44.4581 115.297 44.8641 115.432 45.3775 115.432C45.8535 115.432 46.2175 115.301 46.4695 115.04C46.7308 114.769 46.8615 114.424 46.8615 114.004C46.8615 113.444 46.6841 113.043 46.3295 112.8C45.9748 112.557 45.4241 112.436 44.6775 112.436H44.2715V110.826H44.6775C46.0028 110.826 46.6655 110.383 46.6655 109.496C46.6655 109.095 46.5441 108.782 46.3015 108.558C46.0681 108.334 45.7275 108.222 45.2795 108.222C44.8408 108.222 44.5001 108.343 44.2575 108.586C44.0241 108.819 43.8888 109.118 43.8515 109.482H41.9335Z" fill="#008698"/>
<path d="M50.2683 108.6V106.794H53.6423V117H51.6263V108.6H50.2683Z" fill="#008698"/>
<path d="M279.761 76.07C279.274 76.07 278.834 75.9867 278.441 75.82C278.054 75.6533 277.748 75.4133 277.521 75.1C277.294 74.7867 277.178 74.4167 277.171 73.99H278.671C278.691 74.2767 278.791 74.5033 278.971 74.67C279.158 74.8367 279.411 74.92 279.731 74.92C280.058 74.92 280.314 74.8433 280.501 74.69C280.688 74.53 280.781 74.3233 280.781 74.07C280.781 73.8633 280.718 73.6933 280.591 73.56C280.464 73.4267 280.304 73.3233 280.111 73.25C279.924 73.17 279.664 73.0833 279.331 72.99C278.878 72.8567 278.508 72.7267 278.221 72.6C277.941 72.4667 277.698 72.27 277.491 72.01C277.291 71.7433 277.191 71.39 277.191 70.95C277.191 70.5367 277.294 70.1767 277.501 69.87C277.708 69.5633 277.998 69.33 278.371 69.17C278.744 69.0033 279.171 68.92 279.651 68.92C280.371 68.92 280.954 69.0967 281.401 69.45C281.854 69.7967 282.104 70.2833 282.151 70.91H280.611C280.598 70.67 280.494 70.4733 280.301 70.32C280.114 70.16 279.864 70.08 279.551 70.08C279.278 70.08 279.058 70.15 278.891 70.29C278.731 70.43 278.651 70.6333 278.651 70.9C278.651 71.0867 278.711 71.2433 278.831 71.37C278.958 71.49 279.111 71.59 279.291 71.67C279.478 71.7433 279.738 71.83 280.071 71.93C280.524 72.0633 280.894 72.1967 281.181 72.33C281.468 72.4633 281.714 72.6633 281.921 72.93C282.128 73.1967 282.231 73.5467 282.231 73.98C282.231 74.3533 282.134 74.7 281.941 75.02C281.748 75.34 281.464 75.5967 281.091 75.79C280.718 75.9767 280.274 76.07 279.761 76.07Z" fill="#023437"/>
<path d="M289.225 74.67H286.445L285.985 76H284.515L287.025 69.01H288.655L291.165 76H289.685L289.225 74.67ZM288.845 73.55L287.835 70.63L286.825 73.55H288.845ZM288.925 67.57L286.625 68.62V67.62L288.925 66.43V67.57Z" fill="#023437"/>
<path d="M297.563 72.42C297.956 72.4933 298.28 72.69 298.533 73.01C298.786 73.33 298.913 73.6967 298.913 74.11C298.913 74.4833 298.82 74.8133 298.633 75.1C298.453 75.38 298.19 75.6 297.843 75.76C297.496 75.92 297.086 76 296.613 76H293.603V69.02H296.483C296.956 69.02 297.363 69.0967 297.703 69.25C298.05 69.4033 298.31 69.6167 298.483 69.89C298.663 70.1633 298.753 70.4733 298.753 70.82C298.753 71.2267 298.643 71.5667 298.423 71.84C298.21 72.1133 297.923 72.3067 297.563 72.42ZM295.003 71.9H296.283C296.616 71.9 296.873 71.8267 297.053 71.68C297.233 71.5267 297.323 71.31 297.323 71.03C297.323 70.75 297.233 70.5333 297.053 70.38C296.873 70.2267 296.616 70.15 296.283 70.15H295.003V71.9ZM296.413 74.86C296.753 74.86 297.016 74.78 297.203 74.62C297.396 74.46 297.493 74.2333 297.493 73.94C297.493 73.64 297.393 73.4067 297.193 73.24C296.993 73.0667 296.723 72.98 296.383 72.98H295.003V74.86H296.413Z" fill="#023437"/>
<path d="M245.852 69.02L243.292 76H241.592L239.032 69.02H240.532L242.452 74.57L244.362 69.02H245.852Z" fill="#023437"/>
<path d="M249.592 69.02V76H248.192V69.02H249.592Z" fill="#023437"/>
<path d="M253.875 70.15V71.9H256.225V73.01H253.875V74.86H256.525V76H252.475V69.01H256.525V70.15H253.875Z" fill="#023437"/>
<path d="M202.261 69.02V73.92C202.261 74.6 202.064 75.13 201.671 75.51C201.278 75.8833 200.751 76.07 200.091 76.07C199.424 76.07 198.884 75.8766 198.471 75.49C198.064 75.1033 197.861 74.5633 197.861 73.87H199.261C199.268 74.17 199.338 74.4033 199.471 74.57C199.611 74.7366 199.811 74.82 200.071 74.82C200.324 74.82 200.518 74.74 200.651 74.58C200.784 74.42 200.851 74.2 200.851 73.92V69.02H202.261Z" fill="#023437"/>
<path d="M206.774 69.02V73.34C206.774 73.8133 206.897 74.1766 207.144 74.43C207.391 74.6766 207.737 74.8 208.184 74.8C208.637 74.8 208.987 74.6766 209.234 74.43C209.481 74.1766 209.604 73.8133 209.604 73.34V69.02H211.014V73.33C211.014 73.9233 210.884 74.4266 210.624 74.84C210.371 75.2466 210.027 75.5533 209.594 75.76C209.167 75.9666 208.691 76.07 208.164 76.07C207.644 76.07 207.171 75.9666 206.744 75.76C206.324 75.5533 205.991 75.2466 205.744 74.84C205.497 74.4266 205.374 73.9233 205.374 73.33V69.02H206.774Z" fill="#023437"/>
<path d="M215.267 70.15V71.9H217.617V73.01H215.267V74.86H217.917V76H213.867V69.01H217.917V70.15H215.267Z" fill="#023437"/>
<path d="M166.25 69.02V76H164.85V71.46L162.98 76H161.92L160.04 71.46V76H158.64V69.02H160.23L162.45 74.21L164.67 69.02H166.25Z" fill="#023437"/>
<path d="M170.534 69.02V76H169.134V69.02H170.534Z" fill="#023437"/>
<path d="M174.817 70.15V71.9H177.167V73.01H174.817V74.86H177.467V76H173.417V69.01H177.467V70.15H174.817Z" fill="#023437"/>
<path d="M123.521 69.02V76H122.121V71.46L120.251 76H119.191L117.311 71.46V76H115.911V69.02H117.501L119.721 74.21L121.941 69.02H123.521Z" fill="#023437"/>
<path d="M130.685 74.67H127.905L127.445 76H125.975L128.485 69.01H130.115L132.625 76H131.145L130.685 74.67ZM130.305 73.55L129.295 70.63L128.285 73.55H130.305Z" fill="#023437"/>
<path d="M138.663 76L137.123 73.28H136.463V76H135.063V69.02H137.683C138.223 69.02 138.683 69.1166 139.063 69.31C139.443 69.4966 139.726 69.7533 139.913 70.08C140.106 70.4 140.203 70.76 140.203 71.16C140.203 71.62 140.07 72.0366 139.803 72.41C139.536 72.7766 139.14 73.03 138.613 73.17L140.283 76H138.663ZM136.463 72.23H137.633C138.013 72.23 138.296 72.14 138.483 71.96C138.67 71.7733 138.763 71.5166 138.763 71.19C138.763 70.87 138.67 70.6233 138.483 70.45C138.296 70.27 138.013 70.18 137.633 70.18H136.463V72.23Z" fill="#023437"/>
<path d="M79.1319 74.89H81.4319V76H77.7319V69.02H79.1319V74.89Z" fill="#023437"/>
<path d="M85.2018 69.02V73.34C85.2018 73.8133 85.3251 74.1766 85.5718 74.43C85.8184 74.6766 86.1651 74.8 86.6118 74.8C87.0651 74.8 87.4151 74.6766 87.6618 74.43C87.9084 74.1766 88.0318 73.8133 88.0318 73.34V69.02H89.4418V73.33C89.4418 73.9233 89.3118 74.4266 89.0518 74.84C88.7984 75.2466 88.4551 75.5533 88.0218 75.76C87.5951 75.9666 87.1184 76.07 86.5918 76.07C86.0718 76.07 85.5984 75.9666 85.1718 75.76C84.7518 75.5533 84.4184 75.2466 84.1718 74.84C83.9251 74.4266 83.8018 73.9233 83.8018 73.33V69.02H85.2018Z" fill="#023437"/>
<path d="M98.2644 76H96.8644L93.6944 71.21V76H92.2944V69.01H93.6944L96.8644 73.81V69.01H98.2644V76Z" fill="#023437"/>
<path d="M37.6231 69.02C38.3564 69.02 38.9998 69.1633 39.5531 69.45C40.1131 69.7366 40.5431 70.1466 40.8431 70.68C41.1498 71.2066 41.3031 71.82 41.3031 72.52C41.3031 73.22 41.1498 73.8333 40.8431 74.36C40.5431 74.88 40.1131 75.2833 39.5531 75.57C38.9998 75.8566 38.3564 76 37.6231 76H35.1831V69.02H37.6231ZM37.5731 74.81C38.3064 74.81 38.8731 74.61 39.2731 74.21C39.6731 73.81 39.8731 73.2466 39.8731 72.52C39.8731 71.7933 39.6731 71.2266 39.2731 70.82C38.8731 70.4066 38.3064 70.2 37.5731 70.2H36.5831V74.81H37.5731Z" fill="#023437"/>
<path d="M47.0911 76.07C46.4377 76.07 45.8377 75.9166 45.2911 75.61C44.7444 75.3033 44.3111 74.88 43.9911 74.34C43.6711 73.7933 43.5111 73.1766 43.5111 72.49C43.5111 71.81 43.6711 71.2 43.9911 70.66C44.3111 70.1133 44.7444 69.6866 45.2911 69.38C45.8377 69.0733 46.4377 68.92 47.0911 68.92C47.7511 68.92 48.3511 69.0733 48.8911 69.38C49.4377 69.6866 49.8677 70.1133 50.1811 70.66C50.5011 71.2 50.6611 71.81 50.6611 72.49C50.6611 73.1766 50.5011 73.7933 50.1811 74.34C49.8677 74.88 49.4377 75.3033 48.8911 75.61C48.3444 75.9166 47.7444 76.07 47.0911 76.07ZM47.0911 74.82C47.5111 74.82 47.8811 74.7266 48.2011 74.54C48.5211 74.3466 48.7711 74.0733 48.9511 73.72C49.1311 73.3666 49.2211 72.9566 49.2211 72.49C49.2211 72.0233 49.1311 71.6166 48.9511 71.27C48.7711 70.9166 48.5211 70.6466 48.2011 70.46C47.8811 70.2733 47.5111 70.18 47.0911 70.18C46.6711 70.18 46.2977 70.2733 45.9711 70.46C45.6511 70.6466 45.4011 70.9166 45.2211 71.27C45.0411 71.6166 44.9511 72.0233 44.9511 72.49C44.9511 72.9566 45.0411 73.3666 45.2211 73.72C45.4011 74.0733 45.6511 74.3466 45.9711 74.54C46.2977 74.7266 46.6711 74.82 47.0911 74.82Z" fill="#023437"/>
<path d="M60.8126 69.02V76H59.4126V71.46L57.5426 76H56.4826L54.6026 71.46V76H53.2026V69.02H54.7926L57.0126 74.21L59.2326 69.02H60.8126Z" fill="#023437"/>
<path d="M113.738 43H111.498L106.426 35.336V43H104.186V31.816H106.426L111.498 39.496V31.816H113.738V43Z" fill="#023437"/>
<path d="M120.008 43.144C119.154 43.144 118.386 42.9573 117.704 42.584C117.021 42.2 116.482 41.6613 116.088 40.968C115.704 40.2747 115.512 39.4747 115.512 38.568C115.512 37.6613 115.709 36.8613 116.104 36.168C116.509 35.4747 117.058 34.9413 117.752 34.568C118.445 34.184 119.218 33.992 120.072 33.992C120.925 33.992 121.698 34.184 122.392 34.568C123.085 34.9413 123.629 35.4747 124.024 36.168C124.429 36.8613 124.632 37.6613 124.632 38.568C124.632 39.4747 124.424 40.2747 124.008 40.968C123.602 41.6613 123.048 42.2 122.344 42.584C121.65 42.9573 120.872 43.144 120.008 43.144ZM120.008 41.192C120.413 41.192 120.792 41.096 121.144 40.904C121.506 40.7013 121.794 40.4027 122.008 40.008C122.221 39.6133 122.328 39.1333 122.328 38.568C122.328 37.7253 122.104 37.08 121.656 36.632C121.218 36.1733 120.68 35.944 120.04 35.944C119.4 35.944 118.861 36.1733 118.424 36.632C117.997 37.08 117.784 37.7253 117.784 38.568C117.784 39.4107 117.992 40.0613 118.408 40.52C118.834 40.968 119.368 41.192 120.008 41.192Z" fill="#023437"/>
<path d="M130.091 40.936L132.331 34.136H134.715L131.435 43H128.715L125.451 34.136H127.851L130.091 40.936Z" fill="#023437"/>
<path d="M137.229 33.08C136.834 33.08 136.503 32.9573 136.237 32.712C135.981 32.456 135.853 32.1413 135.853 31.768C135.853 31.3947 135.981 31.0853 136.237 30.84C136.503 30.584 136.834 30.456 137.229 30.456C137.623 30.456 137.949 30.584 138.205 30.84C138.471 31.0853 138.605 31.3947 138.605 31.768C138.605 32.1413 138.471 32.456 138.205 32.712C137.949 32.9573 137.623 33.08 137.229 33.08ZM138.333 34.136V43H136.093V34.136H138.333Z" fill="#023437"/>
<path d="M148.906 38.376C148.906 38.696 148.885 38.984 148.842 39.24H142.362C142.415 39.88 142.639 40.3813 143.034 40.744C143.429 41.1067 143.914 41.288 144.49 41.288C145.322 41.288 145.914 40.9307 146.266 40.216H148.682C148.426 41.0693 147.935 41.7733 147.21 42.328C146.485 42.872 145.594 43.144 144.538 43.144C143.685 43.144 142.917 42.9573 142.234 42.584C141.562 42.2 141.034 41.6613 140.65 40.968C140.277 40.2747 140.09 39.4747 140.09 38.568C140.09 37.6507 140.277 36.8453 140.65 36.152C141.023 35.4587 141.546 34.9253 142.218 34.552C142.89 34.1787 143.663 33.992 144.538 33.992C145.381 33.992 146.133 34.1733 146.794 34.536C147.466 34.8987 147.983 35.416 148.346 36.088C148.719 36.7493 148.906 37.512 148.906 38.376ZM146.586 37.736C146.575 37.16 146.367 36.7013 145.962 36.36C145.557 36.008 145.061 35.832 144.474 35.832C143.919 35.832 143.45 36.0027 143.066 36.344C142.693 36.6747 142.463 37.1387 142.378 37.736H146.586Z" fill="#023437"/>
<path d="M161.669 34.008C162.757 34.008 163.632 34.344 164.293 35.016C164.965 35.6773 165.301 36.6053 165.301 37.8V43H163.061V38.104C163.061 37.4107 162.885 36.8827 162.533 36.52C162.181 36.1467 161.701 35.96 161.093 35.96C160.485 35.96 160 36.1467 159.637 36.52C159.285 36.8827 159.109 37.4107 159.109 38.104V43H156.869V38.104C156.869 37.4107 156.693 36.8827 156.341 36.52C155.989 36.1467 155.509 35.96 154.901 35.96C154.282 35.96 153.792 36.1467 153.429 36.52C153.077 36.8827 152.901 37.4107 152.901 38.104V43H150.661V34.136H152.901V35.208C153.189 34.8347 153.557 34.5413 154.005 34.328C154.464 34.1147 154.965 34.008 155.509 34.008C156.202 34.008 156.821 34.1573 157.365 34.456C157.909 34.744 158.33 35.16 158.629 35.704C158.917 35.192 159.333 34.7813 159.877 34.472C160.432 34.1627 161.029 34.008 161.669 34.008Z" fill="#023437"/>
<path d="M169.787 35.432C170.075 35.0053 170.469 34.6587 170.971 34.392C171.483 34.1253 172.064 33.992 172.715 33.992C173.472 33.992 174.155 34.1787 174.763 34.552C175.381 34.9253 175.867 35.4587 176.219 36.152C176.581 36.8347 176.763 37.6293 176.763 38.536C176.763 39.4427 176.581 40.248 176.219 40.952C175.867 41.6453 175.381 42.184 174.763 42.568C174.155 42.952 173.472 43.144 172.715 43.144C172.053 43.144 171.472 43.016 170.971 42.76C170.48 42.4933 170.085 42.152 169.787 41.736V43H167.547V31.16H169.787V35.432ZM174.475 38.536C174.475 38.0027 174.363 37.544 174.139 37.16C173.925 36.7653 173.637 36.4667 173.275 36.264C172.923 36.0613 172.539 35.96 172.123 35.96C171.717 35.96 171.333 36.0667 170.971 36.28C170.619 36.4827 170.331 36.7813 170.107 37.176C169.893 37.5707 169.787 38.0347 169.787 38.568C169.787 39.1013 169.893 39.5653 170.107 39.96C170.331 40.3547 170.619 40.6587 170.971 40.872C171.333 41.0747 171.717 41.176 172.123 41.176C172.539 41.176 172.923 41.0693 173.275 40.856C173.637 40.6427 173.925 40.3387 174.139 39.944C174.363 39.5493 174.475 39.08 174.475 38.536Z" fill="#023437"/>
<path d="M180.75 35.512C181.038 35.0427 181.412 34.6747 181.87 34.408C182.34 34.1413 182.873 34.008 183.47 34.008V36.36H182.878C182.174 36.36 181.641 36.5253 181.278 36.856C180.926 37.1867 180.75 37.7627 180.75 38.584V43H178.51V34.136H180.75V35.512Z" fill="#023437"/>
<path d="M193.339 38.376C193.339 38.696 193.318 38.984 193.275 39.24H186.795C186.848 39.88 187.072 40.3813 187.467 40.744C187.862 41.1067 188.347 41.288 188.923 41.288C189.755 41.288 190.347 40.9307 190.699 40.216H193.115C192.859 41.0693 192.368 41.7733 191.643 42.328C190.918 42.872 190.027 43.144 188.971 43.144C188.118 43.144 187.35 42.9573 186.667 42.584C185.995 42.2 185.467 41.6613 185.083 40.968C184.71 40.2747 184.523 39.4747 184.523 38.568C184.523 37.6507 184.71 36.8453 185.083 36.152C185.456 35.4587 185.979 34.9253 186.651 34.552C187.323 34.1787 188.096 33.992 188.971 33.992C189.814 33.992 190.566 34.1733 191.227 34.536C191.899 34.8987 192.416 35.416 192.779 36.088C193.152 36.7493 193.339 37.512 193.339 38.376ZM191.019 37.736C191.008 37.16 190.8 36.7013 190.395 36.36C189.99 36.008 189.494 35.832 188.907 35.832C188.352 35.832 187.883 36.0027 187.499 36.344C187.126 36.6747 186.896 37.1387 186.811 37.736H191.019Z" fill="#023437"/>
<path d="M199.475 40.472C200.499 39.6187 201.315 38.9093 201.923 38.344C202.531 37.768 203.037 37.1707 203.443 36.552C203.848 35.9333 204.051 35.3253 204.051 34.728C204.051 34.184 203.923 33.7573 203.667 33.448C203.411 33.1387 203.016 32.984 202.483 32.984C201.949 32.984 201.539 33.1653 201.251 33.528C200.963 33.88 200.813 34.3653 200.803 34.984H198.627C198.669 33.704 199.048 32.7333 199.763 32.072C200.488 31.4107 201.405 31.08 202.515 31.08C203.731 31.08 204.664 31.4053 205.315 32.056C205.965 32.696 206.291 33.544 206.291 34.6C206.291 35.432 206.067 36.2267 205.619 36.984C205.171 37.7413 204.659 38.4027 204.083 38.968C203.507 39.5227 202.755 40.1947 201.827 40.984H206.547V42.84H198.643V41.176L199.475 40.472Z" fill="#023437"/>
<path d="M208.078 37.016C208.078 35.1707 208.409 33.7253 209.07 32.68C209.742 31.6347 210.851 31.112 212.398 31.112C213.945 31.112 215.049 31.6347 215.71 32.68C216.382 33.7253 216.718 35.1707 216.718 37.016C216.718 38.872 216.382 40.328 215.71 41.384C215.049 42.44 213.945 42.968 212.398 42.968C210.851 42.968 209.742 42.44 209.07 41.384C208.409 40.328 208.078 38.872 208.078 37.016ZM214.51 37.016C214.51 36.2267 214.457 35.5653 214.35 35.032C214.254 34.488 214.051 34.0453 213.742 33.704C213.443 33.3627 212.995 33.192 212.398 33.192C211.801 33.192 211.347 33.3627 211.038 33.704C210.739 34.0453 210.537 34.488 210.43 35.032C210.334 35.5653 210.286 36.2267 210.286 37.016C210.286 37.8267 210.334 38.5093 210.43 39.064C210.526 39.608 210.729 40.0507 211.038 40.392C211.347 40.7227 211.801 40.888 212.398 40.888C212.995 40.888 213.449 40.7227 213.758 40.392C214.067 40.0507 214.27 39.608 214.366 39.064C214.462 38.5093 214.51 37.8267 214.51 37.016Z" fill="#023437"/>
<path d="M219.246 40.472C220.27 39.6187 221.086 38.9093 221.694 38.344C222.302 37.768 222.808 37.1707 223.214 36.552C223.619 35.9333 223.822 35.3253 223.822 34.728C223.822 34.184 223.694 33.7573 223.438 33.448C223.182 33.1387 222.787 32.984 222.254 32.984C221.72 32.984 221.31 33.1653 221.022 33.528C220.734 33.88 220.584 34.3653 220.574 34.984H218.398C218.44 33.704 218.819 32.7333 219.534 32.072C220.259 31.4107 221.176 31.08 222.286 31.08C223.502 31.08 224.435 31.4053 225.086 32.056C225.736 32.696 226.062 33.544 226.062 34.6C226.062 35.432 225.838 36.2267 225.39 36.984C224.942 37.7413 224.43 38.4027 223.854 38.968C223.278 39.5227 222.526 40.1947 221.598 40.984H226.318V42.84H218.414V41.176L219.246 40.472Z" fill="#023437"/>
<path d="M227.577 33.4V31.336H231.433V43H229.129V33.4H227.577Z" fill="#023437"/>
<path fill-rule="evenodd" clip-rule="evenodd" d="M85.7071 31.2929C86.0976 31.6834 86.0976 32.3166 85.7071 32.7071L80.4142 38L85.7071 43.2929C86.0976 43.6834 86.0976 44.3166 85.7071 44.7071C85.3166 45.0976 84.6834 45.0976 84.2929 44.7071L78.2929 38.7071C77.9024 38.3166 77.9024 37.6834 78.2929 37.2929L84.2929 31.2929C84.6834 30.9024 85.3166 30.9024 85.7071 31.2929Z" fill="#008698"/>
<path fill-rule="evenodd" clip-rule="evenodd" d="M250.293 31.2929C250.683 30.9024 251.317 30.9024 251.707 31.2929L257.707 37.2929C258.098 37.6834 258.098 38.3166 257.707 38.7071L251.707 44.7071C251.317 45.0976 250.683 45.0976 250.293 44.7071C249.902 44.3166 249.902 43.6834 250.293 43.2929L255.586 38L250.293 32.7071C249.902 32.3166 249.902 31.6834 250.293 31.2929Z" fill="#008698"/>
<defs>
<filter id="filter0_dd_11:301" x="0" y="0" width="336" height="324" filterUnits="userSpaceOnUse" color-interpolation-filters="sRGB">
<feFlood flood-opacity="0" result="BackgroundImageFix"/>
<feColorMatrix in="SourceAlpha" type="matrix" values="0 0 0 0 0 0 0 0 0 0 0 0 0 0 0 0 0 0 127 0" result="hardAlpha"/>
<feOffset/>
<feGaussianBlur stdDeviation="2"/>
<feColorMatrix type="matrix" values="0 0 0 0 0 0 0 0 0 0 0 0 0 0 0 0 0 0 0.12 0"/>
<feBlend mode="normal" in2="BackgroundImageFix" result="effect1_dropShadow_11:301"/>
<feColorMatrix in="SourceAlpha" type="matrix" values="0 0 0 0 0 0 0 0 0 0 0 0 0 0 0 0 0 0 127 0" result="hardAlpha"/>
<feOffset/>
<feGaussianBlur stdDeviation="0.5"/>
<feColorMatrix type="matrix" values="0 0 0 0 0 0 0 0 0 0 0 0 0 0 0 0 0 0 0.48 0"/>
<feBlend mode="normal" in2="effect1_dropShadow_11:301" result="effect2_dropShadow_11:301"/>
<feBlend mode="normal" in="SourceGraphic" in2="effect2_dropShadow_11:301" result="shape"/>
</filter>
</defs>
</svg>
