<svg width="1200" height="750" viewBox="0 0 1200 750" fill="none" xmlns="http://www.w3.org/2000/svg">
  <rect width="1200" height="750" fill="#101513"/>
  <rect x="96" y="82" width="1008" height="586" rx="34" fill="#F5F0E8"/>
  <rect x="150" y="134" width="318" height="482" rx="38" fill="#111816"/>
  <rect x="178" y="176" width="262" height="388" rx="28" fill="#EBE4D8"/>
  <circle cx="309" cy="588" r="12" fill="#EBE4D8"/>
  <rect x="210" y="216" width="156" height="28" rx="14" fill="#486B58"/>
  <rect x="210" y="274" width="196" height="42" rx="18" fill="#FFFFFF"/>
  <rect x="210" y="336" width="142" height="42" rx="18" fill="#FFFFFF"/>
  <rect x="248" y="434" width="158" height="42" rx="18" fill="#486B58"/>
  <path d="M633 222H960" stroke="#101513" stroke-width="20" stroke-linecap="round"/>
  <path d="M633 286H872" stroke="#486B58" stroke-width="18" stroke-linecap="round"/>
  <path d="M633 372H970" stroke="#101513" stroke-width="14" stroke-linecap="round" opacity="0.35"/>
  <path d="M633 424H915" stroke="#101513" stroke-width="14" stroke-linecap="round" opacity="0.35"/>
  <path d="M633 476H842" stroke="#101513" stroke-width="14" stroke-linecap="round" opacity="0.35"/>
  <rect x="633" y="544" width="174" height="48" rx="24" fill="#C96E4A"/>
  <text x="660" y="576" font-family="Inter, Arial, sans-serif" font-size="22" font-weight="700" fill="#101513">Carti.app</text>
</svg>
