<svg width="1200" height="750" viewBox="0 0 1200 750" fill="none" xmlns="http://www.w3.org/2000/svg">
  <rect width="1200" height="750" fill="#F4EFE7"/>
  <rect x="86" y="78" width="1028" height="594" rx="36" fill="#111816"/>
  <rect x="144" y="142" width="246" height="466" rx="26" fill="#F4EFE7"/>
  <rect x="190" y="194" width="154" height="20" rx="10" fill="#486B58"/>
  <rect x="190" y="250" width="116" height="116" rx="24" fill="#D7C8B6"/>
  <rect x="190" y="394" width="148" height="18" rx="9" fill="#111816" opacity="0.55"/>
  <rect x="190" y="434" width="104" height="18" rx="9" fill="#111816" opacity="0.35"/>
  <rect x="476" y="144" width="278" height="194" rx="28" fill="#F4EFE7"/>
  <rect x="526" y="200" width="166" height="18" rx="9" fill="#111816"/>
  <rect x="526" y="246" width="124" height="18" rx="9" fill="#486B58"/>
  <rect x="476" y="392" width="278" height="216" rx="28" fill="#F4EFE7"/>
  <rect x="526" y="450" width="146" height="18" rx="9" fill="#111816"/>
  <rect x="526" y="496" width="178" height="18" rx="9" fill="#486B58"/>
  <rect x="818" y="144" width="238" height="464" rx="28" fill="#F4EFE7"/>
  <circle cx="888" cy="230" r="34" fill="#C96E4A"/>
  <circle cx="966" cy="230" r="34" fill="#486B58"/>
  <rect x="868" y="326" width="138" height="18" rx="9" fill="#111816"/>
  <rect x="868" y="374" width="88" height="18" rx="9" fill="#111816" opacity="0.38"/>
  <rect x="868" y="510" width="128" height="42" rx="21" fill="#C96E4A"/>
  <text x="898" y="537" font-family="Inter, Arial, sans-serif" font-size="20" font-weight="700" fill="#111816">Freela</text>
</svg>
