<!-- Generator: Adobe Illustrator 25.1.0, SVG Export Plug-In  -->
<svg version="1.1" xmlns="http://www.w3.org/2000/svg" xmlns:xlink="http://www.w3.org/1999/xlink" x="0px" y="0px" width="548px"
	 height="127.5px" viewBox="0 0 548 127.5" style="overflow:visible;enable-background:new 0 0 548 127.5;" xml:space="preserve">
<defs>
</defs>
<g>
	<path d="M113.2,25.7c4-2.1,8.6-3.2,13.8-3.2c6,0,11.5,1.5,16.4,4.5c4.9,3,8.7,7.2,11.6,12.7c2.8,5.5,4.3,11.8,4.3,19
		c0,7.2-1.4,13.6-4.3,19.1c-2.8,5.6-6.7,9.9-11.6,12.9c-4.9,3.1-10.3,4.6-16.4,4.6c-5.3,0-9.9-1-13.8-3.1c-3.9-2.1-7.1-4.8-9.5-8.1
		v10.1H85.9V0h17.8v34C106,30.6,109.1,27.8,113.2,25.7z M138.4,47.7c-1.7-3.1-4-5.4-6.9-7.1c-2.8-1.6-5.9-2.4-9.2-2.4
		c-3.2,0-6.3,0.8-9.1,2.5c-2.8,1.7-5.1,4.1-6.9,7.2c-1.7,3.1-2.6,6.8-2.6,11.1c0,4.2,0.9,7.9,2.6,11.1c1.7,3.1,4,5.5,6.9,7.2
		c2.8,1.7,5.9,2.5,9.1,2.5c3.3,0,6.4-0.8,9.2-2.5c2.8-1.7,5.1-4.1,6.9-7.3c1.7-3.1,2.6-6.9,2.6-11.2C141,54.4,140.1,50.8,138.4,47.7
		z"/>
	<path d="M237.2,64.3h-51.5c0.4,5.1,2.2,9.1,5.3,12c3.1,2.9,7,4.3,11.6,4.3c6.6,0,11.3-2.8,14.1-8.5h19.2c-2,6.8-5.9,12.4-11.7,16.7
		c-5.8,4.4-12.9,6.6-21.2,6.6c-6.8,0-12.9-1.5-18.3-4.5c-5.4-3-9.6-7.3-12.6-12.8c-3-5.5-4.5-11.9-4.5-19.1c0-7.3,1.5-13.7,4.5-19.2
		c3-5.5,7.1-9.8,12.5-12.7c5.3-3,11.5-4.5,18.5-4.5c6.7,0,12.7,1.4,18,4.3c5.3,2.9,9.4,7,12.3,12.3c2.9,5.3,4.4,11.4,4.4,18.3
		C237.7,59.9,237.5,62.2,237.2,64.3z M219.2,52.3c-0.1-4.6-1.7-8.2-5-11c-3.2-2.8-7.2-4.1-11.8-4.1c-4.4,0-8.1,1.3-11.1,4
		c-3,2.7-4.9,6.4-5.5,11.1H219.2z"/>
	<path d="M262.1,92.2c-4.6-2.1-8.2-4.9-10.9-8.5c-2.7-3.6-4.1-7.5-4.4-11.8h17.9c0.3,2.7,1.7,5,4,6.7c2.3,1.8,5.2,2.7,8.7,2.7
		c3.4,0,6-0.7,8-2c1.9-1.4,2.9-3.1,2.9-5.2c0-2.3-1.2-4-3.5-5.2c-2.3-1.1-6-2.4-11.1-3.8c-5.3-1.3-9.6-2.6-12.9-3.9
		c-3.4-1.4-6.2-3.4-8.7-6.2c-2.4-2.8-3.6-6.6-3.6-11.3c0-3.9,1.1-7.5,3.4-10.7c2.2-3.2,5.5-5.8,9.7-7.6c4.2-1.9,9.1-2.8,14.8-2.8
		c8.4,0,15.1,2.1,20.1,6.3c5,4.2,7.8,9.9,8.3,17h-17.1c-0.3-2.8-1.4-5-3.5-6.7c-2.1-1.7-4.9-2.5-8.3-2.5c-3.2,0-5.7,0.6-7.4,1.8
		c-1.7,1.2-2.6,2.8-2.6,5c0,2.4,1.2,4.2,3.6,5.4c2.4,1.2,6.1,2.5,11.1,3.8c5.1,1.3,9.3,2.6,12.6,3.9c3.3,1.4,6.2,3.5,8.6,6.3
		c2.4,2.8,3.7,6.6,3.8,11.3c0,4.1-1.1,7.7-3.4,10.9c-2.2,3.2-5.5,5.7-9.7,7.6c-4.2,1.8-9.1,2.7-14.7,2.7
		C271.9,95.3,266.7,94.3,262.1,92.2z"/>
	<path d="M361.7,94.2l-23.9-30v30H320V0h17.8v53.6l23.7-29.9h23.2l-31,35.4l31.3,35.1H361.7z"/>
	<path d="M394,39.7c2.8-5.5,6.7-9.8,11.6-12.7c4.9-3,10.3-4.5,16.4-4.5c5.3,0,9.9,1.1,13.8,3.2c3.9,2.1,7.1,4.8,9.5,8V23.7h17.9
		v70.5h-17.9V83.9c-2.3,3.3-5.5,6-9.5,8.2c-4,2.2-8.7,3.2-13.9,3.2c-5.9,0-11.3-1.5-16.2-4.6c-4.9-3.1-8.7-7.4-11.6-12.9
		c-2.8-5.6-4.3-11.9-4.3-19.1C389.7,51.5,391.2,45.2,394,39.7z M442.7,47.8c-1.7-3.1-4-5.5-6.9-7.1c-2.9-1.7-6-2.5-9.3-2.5
		c-3.3,0-6.4,0.8-9.2,2.4c-2.8,1.6-5.1,4-6.8,7.1c-1.7,3.1-2.6,6.8-2.6,11c0,4.2,0.9,8,2.6,11.1c1.7,3.2,4,5.6,6.9,7.3
		c2.8,1.7,5.9,2.5,9.1,2.5c3.3,0,6.4-0.8,9.3-2.5c2.9-1.7,5.2-4,6.9-7.1c1.7-3.1,2.5-6.8,2.5-11.1S444.4,50.9,442.7,47.8z"/>
	<path d="M548,23.7l-43.6,103.8h-19l15.3-35.1l-28.2-68.7h20l18.2,49.2l18.5-49.2H548z"/>
	<g>
		<path d="M15.6,59.3L15.6,59.3c0.1,0,0.2,0,0.2,0h0c5.7,0,10.7-2.1,14.8-6.1c4.1-4.1,6.2-9.2,6.2-15c0-5.7-2-10.7-5.9-14.7
			l-0.9-0.9l-1.2,0.3c-2.1,0.5-4.2,1.1-6.2,1.9l-3.9,1.5l3.4,2.4c0.5,0.4,1.1,0.9,1.6,1.4c2.3,2.3,3.4,4.9,3.3,8
			c0,3.1-1.2,5.7-3.5,8.1c-2.3,2.3-5,3.4-8.2,3.5c-3.1,0-5.8-1.1-8-3.4c-0.5-0.5-0.9-0.9-1.2-1.4l-2.4-3.4l-1.6,3.9
			c-0.8,2-1.5,4.1-1.9,6.2L0,52.5l0.9,0.9C5,57.2,9.9,59.2,15.6,59.3C15.6,59.3,15.6,59.3,15.6,59.3z"/>
		<path d="M68.8,40.9c-1-1.7-2.1-3.3-3.3-4.9l-1.1-1.4L58,37.3l2.8-6.4l-1.4-1.1c-1.5-1.2-3.2-2.3-4.9-3.3l-2.2-1.2L39.5,55.6
			l30.5-12.5L68.8,40.9z"/>
		<path d="M4.1,76.8c1,1.8,2.1,3.4,3.3,4.9l1.1,1.4l6.4-2.8l-2.7,6.4l1.4,1.1c1.5,1.2,3.2,2.3,4.9,3.3l2.2,1.3l12.6-30.4L2.9,74.6
			L4.1,76.8z"/>
		<path d="M57.4,58.6h-0.3c-5.8,0-10.7,2-14.7,6c-4.6,4.6-6.8,10-6.3,16.2c0.4,5.4,2.4,10,6,13.7l0.9,0.9l1.2-0.3
			c2.1-0.5,4.2-1.1,6.2-1.9l3.9-1.6l-3.4-2.4c-0.5-0.4-1.1-0.9-1.7-1.4C47.1,85.7,46,83.1,46,80c0-3.2,1.1-5.8,3.5-8.3
			c2.3-2.3,4.9-3.4,8.1-3.4h0.1c3.1,0,5.7,1.1,7.9,3.3c0.5,0.5,1,1,1.3,1.5l2.4,3.3l1.5-3.8c0.8-2,1.5-4.1,1.9-6.2l0.3-1.2l-0.9-0.9
			C68,60.5,63,58.6,57.4,58.6z"/>
	</g>
</g>
</svg>
